<svg id="Layer2" xmlns="http://www.w3.org/2000/svg" width="18.52" height="17.552" viewBox="0 0 18.52 17.552">
  <path id="Path_2787" data-name="Path 2787" d="M26.024,24.638l-1.77-13.5a2.025,2.025,0,0,0-2.008-1.762H11.317a2.025,2.025,0,0,0-2.008,1.762l-1.77,13.5a2.025,2.025,0,0,0,2.008,2.288H24.016a2.025,2.025,0,0,0,2.008-2.288Zm-13.3-11.887a4.05,4.05,0,1,0,8.1,0,.675.675,0,1,0-1.35,0,2.7,2.7,0,0,1-5.4,0,.675.675,0,1,0-1.35,0Z" transform="translate(-7.521 -9.375)" fill="#b4b4b4" fill-rule="evenodd"/>
</svg>
