<svg xmlns="http://www.w3.org/2000/svg" width="22.127" height="22.194" viewBox="0 0 22.127 22.194">
  <g id="Group_4686" data-name="Group 4686" transform="translate(-151.08 0.001)">
    <path id="Path_32544" data-name="Path 32544" d="M166.089,24.505V8.16l-7.019,2V26.5l7.019-2Z" transform="translate(-6.228 -6.362)" fill="none"/>
    <path id="Path_32545" data-name="Path 32545" d="M166.089,29.205l-7.019,2h0l7.019-2v0Z" transform="translate(-6.228 -11.062)" fill="#fff"/>
    <path id="Path_32546" data-name="Path 32546" d="M166.184,65.41a.882.882,0,0,0-.882.882v4.979a.143.143,0,0,1-.143.143h-6.847l-5.09,1.449a1.607,1.607,0,0,1-.456.064,1.657,1.657,0,0,1-1.645-1.475,1.913,1.913,0,0,0,1.9,1.727h12.142a1.91,1.91,0,0,0,1.908-1.908V66.292A.882.882,0,0,0,166.184,65.41Z" transform="translate(-0.031 -50.987)" fill="#fff"/>
    <path id="Path_32547" data-name="Path 32547" d="M151.1,92.619v0Z" transform="translate(-0.016 -72.188)" fill="#fff"/>
    <path id="Path_32548" data-name="Path 32548" d="M202.4,11.974a.143.143,0,0,1,.143.143V17.1a.882.882,0,1,0,1.764,0V12.118A1.91,1.91,0,0,0,202.4,10.21h-3.5v1.764Z" transform="translate(-37.275 -7.959)" fill="#fff"/>
    <path id="Path_32549" data-name="Path 32549" d="M218.432,42.184l-3.264-2.946a.662.662,0,0,0-1.1.492v2.064h-3.8a.882.882,0,0,0,0,1.764h3.8v2.064a.661.661,0,0,0,.393.6.678.678,0,0,0,.269.057.667.667,0,0,0,.443-.17l3.264-2.946a.663.663,0,0,0,0-.984Z" transform="translate(-45.444 -30.453)" fill="#fff"/>
    <path id="Path_32550" data-name="Path 32550" d="M151.808,21.657a1.654,1.654,0,0,0,.926.284,1.7,1.7,0,0,0,.457-.064l5.09-1.449,2.139-.609a1.665,1.665,0,0,0,1.206-1.6V1.657a1.658,1.658,0,0,0-2.11-1.594l-7.233,2.06a1.664,1.664,0,0,0-1.2,1.6V20.283q0,.06.007.139v.044a1.656,1.656,0,0,0,.719,1.191ZM159.861,1.8V18.144l-7.019,2h0V3.8l7.019-2Z" transform="translate(0 0)" fill="#fff"/>
  </g>
</svg>
