<svg xmlns="http://www.w3.org/2000/svg" width="35" height="35" viewBox="-11100 1510.95 35 35"><g data-name="CompositeLayer"><path d="M-11100 1528.4a17.5 17.5 0 1 1 0 .1z" fill-rule="evenodd" data-name="Ellipse 44"/><path d="M-11081.505 1529.495h6.755a.695.695 0 0 0 .494-.205.693.693 0 0 0 .205-.494v-.592a.693.693 0 0 0-.205-.493.693.693 0 0 0-.494-.206h-6.755v-6.755a.692.692 0 0 0-.205-.493.692.692 0 0 0-.494-.205h-.592a.7.7 0 0 0-.698.698v6.755h-6.755a.694.694 0 0 0-.494.206.694.694 0 0 0-.205.493v.592c0 .186.073.361.205.493a.693.693 0 0 0 .494.206h6.755v6.755c0 .186.073.36.205.493a.693.693 0 0 0 .493.205h.592a.694.694 0 0 0 .494-.205.694.694 0 0 0 .205-.493v-6.755Z" fill="#fff" fill-rule="evenodd" data-name="Path 151"/></g></svg>