<svg xmlns="http://www.w3.org/2000/svg" width="57" height="57" viewBox="-9645 5000 57 57"><g data-name="CompositeLayer"><path d="M-9635 5000h37a10 10 0 0 1 10 10v37a10 10 0 0 1-10 10h-37a10 10 0 0 1-10-10v-37a10 10 0 0 1 10-10z" fill="#ff5a00" fill-rule="evenodd" data-name="Rectangle 1206"/><path d="M-9633.47 5016.966c0-2.263.698-4.092 2.094-5.489 1.397-1.396 3.174-2.095 5.33-2.095 2.192 0 3.986.699 5.383 2.095 1.396 1.397 2.095 3.226 2.095 5.489 0 2.298-.699 4.145-2.095 5.542-1.397 1.396-3.19 2.094-5.383 2.094-2.156 0-3.933-.698-5.33-2.094-1.396-1.397-2.094-3.244-2.094-5.542Zm29.697-7.053-21.743 37.122h-3.765l21.796-37.122h3.712Zm-22.273 1.856c-1.343 0-2.413.45-3.208 1.352-.796.902-1.194 2.183-1.194 3.845 0 1.661.398 2.952 1.194 3.871.795.92 1.865 1.379 3.208 1.379 1.344 0 2.422-.46 3.235-1.379.813-.92 1.22-2.21 1.22-3.871 0-1.626-.407-2.9-1.22-3.818-.813-.92-1.891-1.38-3.235-1.38Zm11.667 28.212c0-2.298.698-4.145 2.095-5.541 1.396-1.397 3.173-2.095 5.33-2.095 2.156 0 3.933.698 5.33 2.095 1.396 1.396 2.094 3.243 2.094 5.541 0 2.299-.698 4.146-2.095 5.542-1.396 1.397-3.173 2.095-5.33 2.095-2.156 0-3.933-.698-5.33-2.095-1.396-1.396-2.094-3.243-2.094-5.542Zm7.424-5.197c-1.343 0-2.421.46-3.234 1.38-.814.918-1.22 2.191-1.22 3.817 0 1.627.406 2.9 1.22 3.819.813.919 1.891 1.379 3.234 1.379 1.344 0 2.413-.451 3.209-1.353.795-.901 1.193-2.183 1.193-3.845 0-1.661-.398-2.943-1.193-3.844-.796-.902-1.865-1.353-3.209-1.353Z" fill="#fff" fill-rule="evenodd" data-name="Path 2304"/></g></svg>