<svg xmlns="http://www.w3.org/2000/svg" width="57" height="57" viewBox="-11865 6514 57 57"><g data-name="CompositeLayer"><path d="M-11855 6514h37a10 10 0 0 1 10 10v37a10 10 0 0 1-10 10h-37a10 10 0 0 1-10-10v-37a10 10 0 0 1 10-10z" fill-rule="evenodd" data-name="Rectangle 1206"/><path d="M-11840.657 6539.578a7.092 7.092 0 1 0-7.092-7.092 7.1 7.1 0 0 0 7.092 7.092Zm0-11.68a4.589 4.589 0 1 1 0 9.177 4.589 4.589 0 0 1 0-9.177Zm4.792 16.786a9.4 9.4 0 0 0-1.47-.1h-6.675a6.606 6.606 0 0 0-7.091 7.125c0 2.608 1.123 3.721 3.754 3.721h8.343a1.251 1.251 0 1 1 0 2.503h-8.343c-4.035 0-6.257-2.21-6.257-6.224 0-4.442 2.513-9.628 9.594-9.628h6.675c.625-.006 1.25.039 1.867.134a1.248 1.248 0 0 1 1.037 1.433 1.262 1.262 0 0 1-1.434 1.036Zm15.606 6.157.221-.123a1.252 1.252 0 0 0 .466-1.734l-1.528-2.566a1.252 1.252 0 0 0-1.687-.452l-.222.123a1.1 1.1 0 0 1-1.075 0 .973.973 0 0 1-.5-.834c0-.83-.673-1.502-1.502-1.502h-2.555c-.83 0-1.502.672-1.502 1.502a.974.974 0 0 1-.5.834 1.1 1.1 0 0 1-1.075 0 1.519 1.519 0 0 0-2.033.542l-1.273 2.136a1.492 1.492 0 0 0 .546 2.07l.033.018a.946.946 0 0 1-.032 1.668 1.485 1.485 0 0 0-.544 2.066l1.279 2.141a1.502 1.502 0 0 0 2.032.54c.334-.187.74-.187 1.073 0a.968.968 0 0 1 .5.833c0 .83.673 1.502 1.503 1.502h2.548c.829 0 1.501-.672 1.501-1.502a.973.973 0 0 1 .501-.834 1.1 1.1 0 0 1 1.075 0c.713.392 1.61.154 2.034-.54l1.28-2.15a1.502 1.502 0 0 0-.554-2.057l-.03-.017a.95.95 0 0 1 .02-1.669Zm-2.043 3.223-.397.667a3.63 3.63 0 0 0-2.613.36 3.504 3.504 0 0 0-1.629 2.015h-.858a3.494 3.494 0 0 0-1.628-2.014 3.618 3.618 0 0 0-2.613-.36l-.396-.668a3.432 3.432 0 0 0 0-4.771l.396-.667a3.621 3.621 0 0 0 2.613-.36 3.504 3.504 0 0 0 1.628-2.015h.858a3.504 3.504 0 0 0 1.629 2.014 3.624 3.624 0 0 0 2.613.36l.397.668a3.434 3.434 0 0 0 0 4.769Zm-3.319-2.388a1.669 1.669 0 1 1-1.685-1.669h.016c.922 0 1.67.747 1.67 1.669Z" fill="#fff" fill-rule="evenodd" data-name="user-settings"/></g></svg>