<svg xmlns="http://www.w3.org/2000/svg" width="26.426" height="26.427" viewBox="139.014 918.287 26.426 26.427"><path d="M149.015 929.243a5.478 5.478 0 1 0-5.478-5.478 5.485 5.485 0 0 0 5.478 5.478Zm0-9.023a3.545 3.545 0 1 1 0 7.09 3.545 3.545 0 0 1 0-7.09Zm3.702 12.967a7.262 7.262 0 0 0-1.135-.077h-5.156a5.103 5.103 0 0 0-5.479 5.504c0 2.015.868 2.874 2.9 2.874h6.446a.967.967 0 1 1 0 1.934h-6.446c-3.116 0-4.833-1.708-4.833-4.808 0-3.431 1.94-7.438 7.412-7.438h5.156c.482-.004.965.03 1.442.104a.964.964 0 0 1 .8 1.107.974.974 0 0 1-1.107.8Zm12.055 4.757.172-.096a.967.967 0 0 0 .36-1.339l-1.182-1.982a.967.967 0 0 0-1.303-.35l-.171.096a.85.85 0 0 1-.83 0 .751.751 0 0 1-.387-.645c0-.64-.52-1.16-1.16-1.16h-1.974c-.64 0-1.16.52-1.16 1.16a.753.753 0 0 1-.386.645.85.85 0 0 1-.83 0 1.173 1.173 0 0 0-1.57.419l-.984 1.65a1.152 1.152 0 0 0 .421 1.598l.026.014a.73.73 0 0 1-.024 1.289c-.27.155-.468.41-.55.71-.078.3-.032.62.13.886l.987 1.654a1.16 1.16 0 0 0 1.57.416.85.85 0 0 1 .829 0c.235.13.383.376.386.644 0 .641.52 1.16 1.16 1.16h1.969c.64 0 1.16-.519 1.16-1.16a.751.751 0 0 1 .387-.644.85.85 0 0 1 .83 0c.551.303 1.243.12 1.571-.418l.989-1.66a1.16 1.16 0 0 0-.428-1.59l-.023-.012a.733.733 0 0 1 .015-1.29Zm-1.578 2.489-.306.515a2.804 2.804 0 0 0-2.02.279 2.707 2.707 0 0 0-1.257 1.556h-.663a2.7 2.7 0 0 0-1.258-1.556 2.795 2.795 0 0 0-2.018-.279l-.306-.515a2.651 2.651 0 0 0 0-3.685l.306-.516a2.797 2.797 0 0 0 2.018-.278 2.707 2.707 0 0 0 1.258-1.556h.663c.205.66.655 1.217 1.258 1.556a2.8 2.8 0 0 0 2.019.278l.306.516a2.653 2.653 0 0 0 0 3.684Zm-2.564-1.845a1.289 1.289 0 1 1-1.301-1.289h.012c.712 0 1.29.577 1.29 1.29Z" fill="#fff" fill-rule="evenodd" data-name="user-settings"/></svg>