<svg xmlns="http://www.w3.org/2000/svg" width="24.913" height="24.913" viewBox="78.904 1026.033 24.913 24.913"><path d="M101.628 1050.946H90.712l3.2-3.658c.39-.44.576-1.014.541-1.662l-1.89-15.165h9.065c1.186 0 2.189 1.025 2.189 2.238v16.057c0 1.207-.982 2.19-2.19 2.19Zm-2.713-15.327c-.284 0-.557.04-.813.118a1.971 1.971 0 0 0-.688.37 1.81 1.81 0 0 0-.48.628c-.119.25-.179.55-.179.895 0 .697.349 1.334 1.036 1.893a2.848 2.848 0 0 0-.68.525 2.565 2.565 0 0 0-.643 1.235 3.107 3.107 0 0 0-.068.621c0 .215.037.469.111.755.074.284.213.56.414.82.202.261.484.483.836.658.353.177.816.267 1.376.267.224 0 .455-.015.688-.045.23-.029.49-.074.776-.133v-1.124c-.199.06-.408.104-.622.133-.217.03-.441.045-.665.045-.403 0-.724-.057-.954-.17a1.359 1.359 0 0 1-.518-.407 1.197 1.197 0 0 1-.214-.466 2.037 2.037 0 0 1-.044-.362c0-.15.026-.302.08-.467.055-.161.145-.313.267-.45.122-.137.289-.252.496-.34.206-.089.465-.134.769-.134h2.144v-1.182h-1.612a2.383 2.383 0 0 1-.747-.2 1.97 1.97 0 0 1-.562-.385 1.76 1.76 0 0 1-.355-.503 1.319 1.319 0 0 1-.126-.554c0-.236.087-.442.26-.614.171-.172.447-.259.82-.259.295 0 .615.067.954.2.338.131.629.298.866.495l.265-.962a2.84 2.84 0 0 0-1.013-.672 3.206 3.206 0 0 0-1.175-.23Zm-10.095 15.105c-.689-.321-1.172-.971-1.262-1.696l-.126-1.002h3.838l-1.148 1.264-.92 1.013-.382.42Zm3.784-4.157h-11.51a2.192 2.192 0 0 1-2.19-2.19v-16.155c0-1.207.982-2.189 2.19-2.189h7.518c1.102 0 2.036.825 2.173 1.918.022.172 2.22 17.83 2.218 17.902-.007.277-.144.43-.32.624l-.08.09Zm-7.86-15.328a.732.732 0 0 0-.716.587l-1.46 7.299a.73.73 0 0 0 1.431.286l.467-2.333h2.063l.466 2.333a.732.732 0 0 0 .86.573.732.732 0 0 0 .572-.86l-1.46-7.298a.734.734 0 0 0-.716-.587h-1.508Zm1.494 4.38H84.757l.584-2.92h.313l.584 2.918v.002Z" fill="#fff" fill-rule="evenodd" data-name="Subtraction 1"/></svg>