<svg xmlns="http://www.w3.org/2000/svg" width="24.913" height="24.913" viewBox="-9887.096 786.191 24.913 24.913"><g data-name="CompositeLayer"><path d="M-9862.183 791.949v13.232c0 1.386-.89 2.772-2.288 3.276l-6.355 2.395c-.381.126-.763.252-1.271.252-.636 0-1.398-.252-2.034-.63-.254-.252-.635-.504-.763-.756h-4.83c-1.906 0-3.559-1.513-3.559-3.529v-1.26a.998.998 0 0 1 1.017-1.008c.636 0 1.017.378 1.017 1.008v1.26c0 .882.763 1.512 1.525 1.512h4.195v-18.147h-4.195c-.89 0-1.525.63-1.525 1.513v1.26a.998.998 0 0 1-1.017 1.008.998.998 0 0 1-1.017-1.008v-1.26a3.537 3.537 0 0 1 3.56-3.529h4.83l.762-.756c1.017-.63 2.161-.756 3.305-.378l6.355 2.394c1.271.378 2.288 1.765 2.288 3.15Z" fill="#fff" fill-rule="evenodd" data-name="Path 2294"/><path d="M-9883.537 802.156a.975.975 0 0 1-.635-.252l-2.542-2.52c-.127-.126-.127-.252-.255-.252 0-.126-.127-.252-.127-.378s0-.252.127-.378c0-.126.128-.252.255-.252l2.542-2.52a1.004 1.004 0 0 1 1.398 0 .983.983 0 0 1 0 1.386l-.89.882h5.212c.508 0 1.016.378 1.016 1.008s-.508.756-1.016.756h-5.339l.89.882a.983.983 0 0 1 0 1.386.975.975 0 0 1-.636.252Z" fill="#fff" fill-rule="evenodd" data-name="Path 2295"/></g></svg>