<svg xmlns="http://www.w3.org/2000/svg" width="57" height="57" viewBox="-11865 -204 57 57"><g data-name="CompositeLayer"><path d="M-11855-204h37a10 10 0 0 1 10 10v37a10 10 0 0 1-10 10h-37a10 10 0 0 1-10-10v-37a10 10 0 0 1 10-10z" fill-rule="evenodd" data-name="Rectangle 1206"/><path d="M-11838.326-157.925h-5.153c-4.258 0-6.603-2.39-6.603-6.724 0-4.265 2.095-9.164 7.808-10.201a1.29 1.29 0 0 1 .217-.055 11.95 11.95 0 0 1 1.97-.144H-11832.913a11.94 11.94 0 0 1 1.97.144c.074.012.147.03.217.055 5.714 1.036 7.808 5.936 7.808 10.201 0 4.335-2.346 6.724-6.603 6.724h-8.805Zm8.805-2.704c2.777 0 3.962-1.202 3.962-4.02a7.235 7.235 0 0 0-2.007-5.616 6.925 6.925 0 0 0-3.547-1.958 1.308 1.308 0 0 1-.25-.014 9.655 9.655 0 0 0-1.55-.109H-11840.087a9.664 9.664 0 0 0-1.551.109 1.306 1.306 0 0 1-.249.014 6.922 6.922 0 0 0-3.546 1.958 7.235 7.235 0 0 0-2.008 5.616c0 2.818 1.186 4.02 3.962 4.02H-11829.52Zm-14.382-24.785c0-4.23 3.35-7.66 7.484-7.66 4.133 0 7.484 3.43 7.484 7.66s-3.35 7.66-7.484 7.66c-4.132-.004-7.48-3.431-7.484-7.66Zm2.641 0c0 2.738 2.169 4.957 4.843 4.957s4.842-2.22 4.842-4.957c0-2.738-2.168-4.957-4.842-4.957-2.673.003-4.84 2.22-4.843 4.957Z" fill="#fff" fill-rule="evenodd" data-name="Union 3"/></g></svg>