<svg xmlns="http://www.w3.org/2000/svg" width="15.237" height="15.237" viewBox="-11106.783 -186.619 15.237 15.237"><g data-name="CompositeLayer"><path d="M-11104.975-176.067a6.19 6.19 0 0 1 0-8.744 6.19 6.19 0 0 1 8.743 0 6.063 6.063 0 0 1 .93 7.462s-.102.172.036.31l3.155 3.154c.627.628.777 1.506.22 2.063l-.096.096c-.557.557-1.435.407-2.062-.22l-3.148-3.148c-.145-.145-.317-.043-.317-.043a6.063 6.063 0 0 1-7.461-.93Zm7.602-1.141a4.573 4.573 0 0 0 0-6.461 4.573 4.573 0 0 0-6.46 0 4.573 4.573 0 0 0 0 6.46 4.574 4.574 0 0 0 6.46 0Z" fill="#bababa" fill-rule="evenodd" data-name="Path 33"/><path d="M-11097.768-180.806a.637.637 0 0 0 .588-.887 4.022 4.022 0 0 0-5.265-2.134.638.638 0 0 0 .497 1.176 2.744 2.744 0 0 1 3.592 1.456c.103.243.34.39.588.39Z" fill="#bababa" fill-rule="evenodd" data-name="Path 34"/></g></svg>