<svg xmlns="http://www.w3.org/2000/svg" width="56.002" height="40.001" viewBox="-10134.5 3.219 56.002 40.001"><g data-name="CompositeLayer"><path d="M-10126.5 3.22h40.002a8 8 0 0 1 8 8v24a8 8 0 0 1-8 8h-40.002a8 8 0 0 1-8-8v-24a8 8 0 0 1 8-8z" fill="#fff" fill-rule="evenodd" data-name="Rectangle 964"/><path d="M-10095.023 15.119a1.91 1.91 0 0 0-2.7 0l-12.152 12.152-5.4-5.401a1.91 1.91 0 1 0-2.7 2.7l6.75 6.751c.373.373.861.56 1.35.56.489 0 .978-.187 1.35-.56l13.502-13.502a1.91 1.91 0 0 0 0-2.7Z" fill="#3bb44e" fill-rule="evenodd" data-name="Path 162"/></g></svg>