<svg xmlns="http://www.w3.org/2000/svg" width="41.194" height="38.236" viewBox="-12347.097 12.985 41.194 38.236"><g data-name="CompositeLayer"><path d="M-12307.402 37.05a1.5 1.5 0 0 0-1.5 1.499v5.121a4.551 4.551 0 0 1-4.551 4.551h-26.093a4.551 4.551 0 0 1-4.552-4.551v-5.121a1.5 1.5 0 0 0-2.999 0v5.121a7.558 7.558 0 0 0 7.55 7.55h26.094a7.558 7.558 0 0 0 7.55-7.55v-5.121a1.5 1.5 0 0 0-1.5-1.5Z" fill="#3bb44e" fill-rule="evenodd" data-name="Path 172"/><path d="m-12333.998 24.078 5.999-5.999v22.27a1.5 1.5 0 1 0 2.999 0V18.101l5.998 5.998a1.5 1.5 0 0 0 2.122-2.122l-8.555-8.555a1.62 1.62 0 0 0-.75-.413 1.545 1.545 0 0 0-1.357.413l-8.555 8.533a1.5 1.5 0 0 0 2.1 2.122Z" fill="#3bb44e" fill-rule="evenodd" data-name="Path 173"/></g></svg>