<svg id="Group_4617" data-name="Group 4617" xmlns="http://www.w3.org/2000/svg" width="46.45" height="61.386" viewBox="0 0 46.45 61.386">
  <rect id="Rectangle_23431" data-name="Rectangle 23431" width="46.45" height="59.871" transform="translate(0 1.516)" fill="#005985"/>
  <rect id="Rectangle_23432" data-name="Rectangle 23432" width="43.131" height="55.589" transform="translate(1.649 3.651)" fill="#dfebed"/>
  <rect id="Rectangle_23433" data-name="Rectangle 23433" width="35.606" height="1.527" transform="translate(5.422 11.662)" fill="#c2d8da"/>
  <rect id="Rectangle_23434" data-name="Rectangle 23434" width="35.606" height="1.527" transform="translate(5.422 17.526)" fill="#c2d8da"/>
  <rect id="Rectangle_23435" data-name="Rectangle 23435" width="35.606" height="1.527" transform="translate(5.422 23.623)" fill="#c2d8da"/>
  <g id="Group_4616" data-name="Group 4616" transform="translate(2.691 24.187)">
    <path id="Path_46127" data-name="Path 46127" d="M104.887,52.2h0s.044.1,0,.133l-.443.487s-.089.044-.133,0h0s-.044-.1,0-.133l.443-.487S104.843,52.158,104.887,52.2Z" transform="translate(-104.292 -18.632)" fill="#00b6cd" fill-rule="evenodd"/>
    <path id="Path_46128" data-name="Path 46128" d="M134.94,22.547c.786.719.6,2.191-.4,3.286L115.953,46.148a51,51,0,0,1-6.5,6.34,30.334,30.334,0,0,1-4.725,3.319c-.1.044-.255-.21-.243-.254a22.186,22.186,0,0,1,2.656-4.769,54.272,54.272,0,0,1,5.864-7.126L131.7,23.233C132.694,22.138,134.155,21.828,134.94,22.547Z" transform="translate(-104.271 -21.828)" fill="#00b6cd" fill-rule="evenodd"/>
    <path id="Path_46129" data-name="Path 46129" d="M134.942,22.547c.786.719.6,2.191-.4,3.286l-1.992,2.18a10.2,10.2,0,0,0-1.295-1.438,9.588,9.588,0,0,0-1.549-1.162l1.992-2.18c1-1.1,2.456-1.405,3.242-.686h0ZM113.167,49.136a41.858,41.858,0,0,1-3.707,3.342,28.405,28.405,0,0,1-4.813,3.353c-.033.011-.177-.144-.177-.155a20.335,20.335,0,0,1,2.689-4.9,42.329,42.329,0,0,1,3.22-4.2,10.688,10.688,0,0,0,1.284,1.416,9.97,9.97,0,0,0,1.516,1.151Z" transform="translate(-104.273 -21.828)" fill="#005985" fill-rule="evenodd"/>
    <path id="Path_46130" data-name="Path 46130" d="M129.458,21.86l2.158,1.97L130.3,25.268l-1.162-1.062L115.406,39.22l-1-.907Z" transform="translate(-103.215 -21.86)" fill="#005985" fill-rule="evenodd"/>
  </g>
  <rect id="Rectangle_23436" data-name="Rectangle 23436" width="18.666" height="6.595" rx="0.47" transform="translate(13.886 1.283)" fill="#00b6cd"/>
  <path id="Path_46131" data-name="Path 46131" d="M127.1,1.16V4.9a.472.472,0,0,1-.443.5h-6.871a.472.472,0,0,1-.443-.5V1.16Z" transform="translate(-99.999 0.123)" fill="#009baf" fill-rule="evenodd"/>
  <rect id="Rectangle_23437" data-name="Rectangle 23437" width="6.738" height="4.824" rx="0.35" transform="translate(19.85 0)" fill="#00b6cd"/>
</svg>
