<svg xmlns="http://www.w3.org/2000/svg" width="40" height="40" viewBox="0 0 40 40">
  <g id="Group_4622" data-name="Group 4622" transform="translate(0)">
    <circle id="Ellipse_251" data-name="Ellipse 251" cx="20" cy="20" r="20" transform="translate(0 0)" fill="#d0d0d0"/>
    <path id="bookmark" d="M3.379,17.1a.736.736,0,0,0,.747-.02l5.5-3.436,5.5,3.436a.736.736,0,0,0,1.126-.624V3.207A2.207,2.207,0,0,0,14.037,1H5.207A2.207,2.207,0,0,0,3,3.207V16.452a.736.736,0,0,0,.379.644ZM4.472,3.207a.736.736,0,0,1,.736-.736h8.83a.736.736,0,0,1,.736.736v11.92l-4.761-2.976a.736.736,0,0,0-.78,0L4.472,15.128Z" transform="translate(10.376 10.905)" fill="#3c757d"/>
  </g>
</svg>
