<svg xmlns="http://www.w3.org/2000/svg" width="19.533" height="19.533" viewBox="0 0 19.533 19.533">
  <g id="up-arrow" transform="translate(0 19.533) rotate(-90)">
    <g id="Group_20" data-name="Group 20">
      <g id="Group_19" data-name="Group 19">
        <path id="Path_170" data-name="Path 170" d="M9.766,19.533a9.767,9.767,0,1,1,9.766-9.767A9.777,9.777,0,0,1,9.766,19.533Zm0-18.02A8.254,8.254,0,1,0,18.02,9.767,8.263,8.263,0,0,0,9.766,1.513Z"/>
      </g>
    </g>
    <g id="Group_22" data-name="Group 22" transform="translate(5.272 7.436)">
      <g id="Group_21" data-name="Group 21">
        <path id="Path_171" data-name="Path 171" d="M8.814,1.287,5.031,5.069a.756.756,0,0,1-1.067,0L.182,1.287A.756.756,0,0,1,1.249.22L4.494,3.466,7.747.22A.754.754,0,0,1,8.814,1.287Z"/>
      </g>
    </g>
  </g>
</svg>
