<svg id="Group_1274" data-name="Group 1274" xmlns="http://www.w3.org/2000/svg" width="40" height="40" viewBox="0 0 40 40">
  <circle id="Ellipse_251" data-name="Ellipse 251" cx="20" cy="20" r="20" transform="translate(0 0)" fill="#3c757d"/>
  <path id="Union_14" data-name="Union 14" d="M.251,11.148a.855.855,0,0,1,0-1.21L4.489,5.7.251,1.462A.856.856,0,0,1,1.462.251L5.7,4.489,9.937.251a.856.856,0,0,1,1.21,1.211L6.91,5.7l4.237,4.237a.856.856,0,0,1-1.21,1.21L5.7,6.91,1.462,11.148a.857.857,0,0,1-1.211,0Z" transform="translate(20.506 12.447) rotate(45)" fill="#f5f5f5"/>
</svg>
