<svg xmlns="http://www.w3.org/2000/svg" width="19.533" height="19.533" viewBox="0 0 19.533 19.533">
  <g id="up-arrow" transform="translate(0 19.533) rotate(-90)">
    <g id="Group_20" data-name="Group 20">
      <g id="Group_19" data-name="Group 19">
        <path id="Path_170" data-name="Path 170" d="M9.766,0a9.766,9.766,0,1,0,9.766,9.766A9.777,9.777,0,0,0,9.766,0Zm0,18.02A8.253,8.253,0,1,1,18.02,9.766,8.263,8.263,0,0,1,9.766,18.02Z"/>
      </g>
    </g>
    <g id="Group_22" data-name="Group 22" transform="translate(5.272 6.808)">
      <g id="Group_21" data-name="Group 21">
        <path id="Path_171" data-name="Path 171" d="M147.011,182.449l-3.783-3.782a.756.756,0,0,0-1.067,0l-3.782,3.782a.756.756,0,0,0,1.067,1.067l3.245-3.245,3.253,3.245a.754.754,0,0,0,1.067-1.067Z" transform="translate(-138.197 -178.446)"/>
      </g>
    </g>
  </g>
</svg>
