<svg xmlns="http://www.w3.org/2000/svg" width="55.065" height="61.219" viewBox="0 0 55.065 61.219">
  <g id="Group_4619" data-name="Group 4619" transform="translate(0 0)">
    <path id="Path_46132" data-name="Path 46132" d="M15.2,130.649c.06.386-.8.88-1.181.952l-.976-1.988L11.891,122.6a5.39,5.39,0,0,1,.145-3.024l2.133-8.374c.084-.313.2-.627.3-1.036.241-1,.3-1.084-.747-1.084L.613,108.8c-.783,0-.831-.711,0-.723l13.1-.422c2.109-.012,2.578.723,2.121,2.651-.1.41-.181.759-.277,1.133L13.4,119.938a4.222,4.222,0,0,0-.12,2.446l1.615,6.844.084.7.217.723Z" transform="translate(-0.007 -98.889)" fill="#00b6cd" fill-rule="evenodd"/>
    <rect id="Rectangle_23438" data-name="Rectangle 23438" width="1.916" height="19.784" transform="translate(29.439 11.326)" fill="#00b6cd"/>
    <path id="Path_46133" data-name="Path 46133" d="M26.356,124.13v2.494H24.44v-2.482A2.826,2.826,0,0,0,26.356,124.13Z" transform="translate(4.999 -95.515)" fill="#009baf" fill-rule="evenodd"/>
    <path id="Path_46134" data-name="Path 46134" d="M12.688,125.532l.482,2.446-1.88.361-.47-2.434a2.8,2.8,0,0,0,1.88-.386Z" transform="translate(2.208 -95.23)" fill="#009baf" fill-rule="evenodd"/>
    <path id="Path_46135" data-name="Path 46135" d="M24.762,124.71a2.561,2.561,0,0,0,1.916,0l1.892,8.277-2.819,3.157-2.88-3.157Z" transform="translate(4.677 -95.396)" fill="#00b6cd" fill-rule="evenodd"/>
    <path id="Path_46136" data-name="Path 46136" d="M10.967,126.461a2.6,2.6,0,0,0,1.88-.361l3.434,7.759L14.112,137.5l-3.422-2.542.265-8.482Z" transform="translate(2.182 -95.111)" fill="#00b6cd" fill-rule="evenodd"/>
    <path id="Path_46137" data-name="Path 46137" d="M28.33,130.73l.229,1.024-2.819,3.157-2.88-3.157.229-1.012a10.669,10.669,0,0,0,5.229,0Z" transform="translate(4.675 -94.163)" fill="#009baf" fill-rule="evenodd"/>
    <path id="Path_46138" data-name="Path 46138" d="M15.859,131.74l.422.964-2.169,3.639L10.69,133.8l.036-1.036a10.489,10.489,0,0,0,5.133-1.012Z" transform="translate(2.182 -93.956)" fill="#009baf" fill-rule="evenodd"/>
    <path id="Path_46139" data-name="Path 46139" d="M26.676,100.38c4.7,0,8.519,2.627,8.519,5.856s-3.807,5.856-8.519,5.856-8.506-2.627-8.506-5.856S21.977,100.38,26.676,100.38Z" transform="translate(3.714 -100.38)" fill="#00b6cd" fill-rule="evenodd"/>
    <path id="Path_46140" data-name="Path 46140" d="M26.508,102.02c4.157,0,7.518,2.145,7.518,4.8s-3.374,4.8-7.518,4.8-7.518-2.145-7.518-4.8S22.364,102.02,26.508,102.02Z" transform="translate(3.882 -100.044)" fill="#dfebed" fill-rule="evenodd"/>
    <path id="Path_46141" data-name="Path 46141" d="M28.569,155.2V131.58a10.08,10.08,0,0,1-5.7,0V155.2Z" transform="translate(4.677 -93.988)" fill="#00b6cd" fill-rule="evenodd"/>
    <path id="Path_46142" data-name="Path 46142" d="M20.654,155,16.281,132.54a10.086,10.086,0,0,1-5.591,1.084L14.847,155Z" transform="translate(2.182 -93.792)" fill="#00b6cd" fill-rule="evenodd"/>
    <g id="Group_4618" data-name="Group 4618" transform="translate(41.186 7.93)">
      <path id="Path_46143" data-name="Path 46143" d="M41.17,129.129,40.134,129c.12-.675-.578.084-.434-.819.482-3.217,1.072-7.494,2.109-9.8a62.282,62.282,0,0,1,3.253-5.554c1.1-1.9.9-3.53-.7-4.325-1.687-.843-4.289-.494-6.193.193a6.813,6.813,0,0,1,6.7-1.337,3.775,3.775,0,0,1,2.145,4.844c-.892,2.482-2.6,4.265-3.591,6.591-.711,1.675-1.337,6.338-1.819,9.639-.145.952-.313.084-.422.687Z" transform="translate(-33.375 -106.961)" fill="#00b6cd" fill-rule="evenodd"/>
      <path id="Path_46144" data-name="Path 46144" d="M41.391,124.753l-.337,2.47-1.9-.265.337-2.458a2.778,2.778,0,0,0,1.9.241Z" transform="translate(-33.174 -103.368)" fill="#009baf" fill-rule="evenodd"/>
      <path id="Path_46145" data-name="Path 46145" d="M39.858,125.06a2.62,2.62,0,0,0,1.9.265l.747,8.458-3.217,2.735L36.87,133l2.988-7.94Z" transform="translate(-33.641 -103.254)" fill="#00b6cd" fill-rule="evenodd"/>
      <path id="Path_46146" data-name="Path 46146" d="M42.412,131.551l.1,1.048-3.217,2.735-2.422-3.518.361-.976a10.429,10.429,0,0,0,5.181.7Z" transform="translate(-33.641 -102.07)" fill="#009baf" fill-rule="evenodd"/>
      <path id="Path_46147" data-name="Path 46147" d="M39.937,155.179l3.121-22.748a10.181,10.181,0,0,1-5.639-.771L34.19,155.191h5.747Z" transform="translate(-34.19 -101.902)" fill="#00b6cd" fill-rule="evenodd"/>
    </g>
  </g>
</svg>
