<svg xmlns="http://www.w3.org/2000/svg" width="51.178" height="61.758" viewBox="0 0 51.178 61.758">
  <g id="Group_4615" data-name="Group 4615" transform="translate(0)">
    <path id="Path_46108" data-name="Path 46108" d="M228.821,125.353c.8,2.134,6.3,4.153,8.74,4.046,6.789-.3,8.286.56,8.585,6.712.048,1.1.164,11.193.174,13.984H198.768c-.019-2.7-.1-12.622-.058-13.646.261-6.451,1.69-7.349,8.6-7.05,2.125.1,7.465-2.453,8.045-4.046a11.965,11.965,0,0,0,.241-5.843l6.49.126,6.49-.126a11.733,11.733,0,0,0,.241,5.843Z" transform="translate(-196.428 -88.346)" fill="#edead7" fill-rule="evenodd"/>
    <path id="Path_46109" data-name="Path 46109" d="M214.82,126.788l7.794.84,7.9-.888-.869,23.6H215.8Z" transform="translate(-196.98 -88.594)" fill="#b1d4d3" fill-rule="evenodd"/>
    <path id="Path_46110" data-name="Path 46110" d="M215.85,125.971c.608.155,1.062,3.873,3.312,3.206,1.13-2.347,2.27-4.3,3.96-4.925,1.178-.435,1.97-.406,2.946-1.169.763-.608,1.738-1.941,2.926-2.791a5.721,5.721,0,0,1,.164-.773l-6.49.126-6.49-.126a13.777,13.777,0,0,1-.328,6.461Z" transform="translate(-197.015 -88.346)" fill="#d5d2c0" fill-rule="evenodd"/>
    <g id="Group_4613" data-name="Group 4613" transform="translate(17.666 35.365)">
      <path id="Path_46111" data-name="Path 46111" d="M229.269,123.86a3.5,3.5,0,0,0,1.516,2.685l-3.9,6.654-4.124-5.775c2.047-1.13,5.708-2.54,6.509-3.564Z" transform="translate(-214.918 -123.86)" fill="#d3ecec" fill-rule="evenodd"/>
      <path id="Path_46112" data-name="Path 46112" d="M216.156,123.86a3.5,3.5,0,0,1-1.516,2.685l3.9,6.654,4.124-5.775c-2.047-1.13-5.708-2.54-6.509-3.564Z" transform="translate(-214.64 -123.86)" fill="#d3ecec" fill-rule="evenodd"/>
    </g>
    <path id="Path_46113" data-name="Path 46113" d="M230.657,126.65a16.891,16.891,0,0,0,8.672,2.994c6.78-.28,8.643.454,9.117,5.524.116,1.265-.155,11.936-.174,15.162H224.1c1.671-5.891,4.713-18.194,6.567-23.689Z" transform="translate(-197.298 -88.591)" fill="#dfebed" fill-rule="evenodd"/>
    <path id="Path_46114" data-name="Path 46114" d="M214.187,126.65a16.891,16.891,0,0,1-8.672,2.994c-6.779-.28-8.643.454-9.117,5.524-.116,1.236,0,11.618,0,15.162h24.356c-1.7-6.036-4.761-18.291-6.577-23.689Z" transform="translate(-196.347 -88.591)" fill="#dfebed" fill-rule="evenodd"/>
    <path id="Path_46115" data-name="Path 46115" d="M222.96,127.84l2.028,2.994-.058.753-1.671,1.7,1.874,3.013-.869,14.08h-2.878l-.975-14.1,1.874-3.013-1.671-1.69-.048-.763,2.018-2.984Z" transform="translate(-197.171 -88.631)" fill="#002035" fill-rule="evenodd"/>
    <g id="Group_4614" data-name="Group 4614" transform="translate(14.599 18.385)">
      <path id="Path_46116" data-name="Path 46116" d="M214.946,113.938l.377-4.481a10.231,10.231,0,0,1-1.487-1.622c-.956-1.478-1.545-1.816-2.125-1.381-.232.174-.319.724-.184,1.42.241,1.217,1,3.023,1.246,4.095C212.967,112.828,214.087,115.754,214.946,113.938Z" transform="translate(-211.464 -106.278)" fill="#edead7" fill-rule="evenodd"/>
      <path id="Path_46117" data-name="Path 46117" d="M230.607,113.938l-.377-4.481a10.232,10.232,0,0,0,1.487-1.622c.956-1.478,1.545-1.816,2.125-1.381.232.174.319.724.183,1.42-.241,1.217-1,3.023-1.246,4.095C232.586,112.828,231.466,115.754,230.607,113.938Z" transform="translate(-212.107 -106.278)" fill="#edead7" fill-rule="evenodd"/>
    </g>
    <path id="Path_46118" data-name="Path 46118" d="M219.4,121.566c-4.8-2.183-6.142-8.334-6.364-12.371-.087-1.593.608-3.2.56-4.993a22.411,22.411,0,0,1,.116-4.452c.811-4.684,6.751-6.084,10.662-5.5,6.413.946,7.233,4.346,7.069,9.918-.048,1.8.647,3.39.56,4.983-.212,4.046-1.96,10.642-6.837,12.564a6.38,6.38,0,0,1-2.579.869,9.628,9.628,0,0,1-3.177-.995Z" transform="translate(-196.919 -87.476)" fill="#edead7" fill-rule="evenodd"/>
    <path id="Path_46119" data-name="Path 46119" d="M219.4,122.043c-3.457-1.574-5.128-5.205-5.862-8.624a14.988,14.988,0,0,1-.386-5.283c.425,3.95,1.9,7.233,6.2,9.194a9.2,9.2,0,0,0,3.177.995,6.236,6.236,0,0,0,2.579-.869c4.384-1.729,6.287-5.369,6.78-9.406a15.257,15.257,0,0,1-.666,6.181c-.937,3.3-2.8,6.664-6.055,7.938a6.379,6.379,0,0,1-2.579.869,9.628,9.628,0,0,1-3.177-.995Z" transform="translate(-196.919 -87.953)" fill="#002035" fill-rule="evenodd"/>
    <path id="Path_46120" data-name="Path 46120" d="M218.788,119.066c-.309-3.158.541-2.656,2.414-4.037.724-.541.174-.241,1.41-.135,1.323-.116.666-.406,1.478.183,1.391,1.014,3.583,1.381,2.173,4.133.068-.57-.724.763-.753.435-.1-1.1.029-2.762-1.68-3.139-.531-.116-.8-.328-1.2,0-.367-.3-.55-.106-1.043-.029-1.893.309-1.178,1.738-1.555,3.4-.048.2-1.207-1.072-1.236-.811Z" transform="translate(-197.114 -88.182)" fill="#002035" fill-rule="evenodd"/>
    <path id="Path_46121" data-name="Path 46121" d="M225.5,98.674c-2.009-.183-3.293-.879-5.331.077-1.632-.251-3.544-.579-4.133.135-.386.464-.734,1.226-.309,2.81l-.744-.792a14.269,14.269,0,0,0-.444,4.384l-.888-.715a12.146,12.146,0,0,0-.27,5.4c-.637-2.105-.6-4.288-1.323-4.722a20.481,20.481,0,0,1,.406-7.948l-.888.493a12.124,12.124,0,0,1,.792-1.632,2.186,2.186,0,0,0-1.313.917c.946-1.922,2.607-2.723,3.882-4.635a2.313,2.313,0,0,0-1.593.579c.908-2.076,1.989-2.414,3.573-3.09a3.341,3.341,0,0,1-.57-1.613c1.217,1.3,3.274.995,4.481.773-.521-.512-.975-.84-.811-1.854.4.917.927,1,1.661,1.236l-.5-.859a16.519,16.519,0,0,0,4.124,1.97c1.024.473,4.636,2.646,4.887.84.328.85.184,1.255-.367,1.555a7.271,7.271,0,0,0,1.709-.106c-.3.145-.6.29-.9.425,2.347,1.4,1.97,2.424,2.366,5.331a7.937,7.937,0,0,0-1.033-2.665c.357,1.265.927,2.82,1.072,3.786a5.758,5.758,0,0,1,0,1.526,7.336,7.336,0,0,1,.135,1.767,11.753,11.753,0,0,0-.222-1.226,15.632,15.632,0,0,0-.28,1.632c-.048.521.27,1.043.183,1.555a15.661,15.661,0,0,0-.386,2.5c-.145-.888-.319-.2-.348-1.111l-.357,3.013a49.675,49.675,0,0,0-.628-5.534c-.029-.212-.6-.589-.628-.782a11.6,11.6,0,0,0-1.313-3.448A1.5,1.5,0,0,0,228,98.191c-.9.077-1.96.521-2.5.473Z" transform="translate(-196.851 -87.24)" fill="#002035" fill-rule="evenodd"/>
    <path id="Path_46122" data-name="Path 46122" d="M231.6,127.63a11.394,11.394,0,0,0,3.757,1.381l.55,9.165-3.341-.493,2.173,2.356L229.9,150.383H225.36c1.68-6.016,4.433-17.393,6.239-22.743Z" transform="translate(-197.341 -88.624)" fill="#c2d8da" fill-rule="evenodd"/>
    <path id="Path_46123" data-name="Path 46123" d="M230.658,126.65a13.868,13.868,0,0,0,3.989,2.047l-.077.058.2,8.508-3.641-.406,2.125,2.839-4.665,10.642H224.13C225.81,144.4,228.824,132.106,230.658,126.65Z" transform="translate(-197.299 -88.591)" fill="#dfebed" fill-rule="evenodd"/>
    <path id="Path_46124" data-name="Path 46124" d="M213.727,127.39a17.058,17.058,0,0,1-3.766,1.564l-.55,9.165,3.341-.493-2.173,2.356,4.858,10.391h4.529c-1.68-6.016-4.433-17.605-6.239-22.975Z" transform="translate(-196.794 -88.616)" fill="#c2d8da" fill-rule="evenodd"/>
    <path id="Path_46125" data-name="Path 46125" d="M214.674,126.65a13.868,13.868,0,0,1-3.989,2.047l.077.058-.2,8.508,3.641-.406-2.125,2.839,5.061,10.642h4.075C219.522,144.323,216.5,132.058,214.674,126.65Z" transform="translate(-196.834 -88.591)" fill="#dfebed" fill-rule="evenodd"/>
    <path id="Path_46126" data-name="Path 46126" d="M223.324,108.115a17.284,17.284,0,0,0,1.217,2.395c.435.483,1.381.647,2.7.628a5.32,5.32,0,0,0,3.284-.908,9.2,9.2,0,0,0,1.246-2.714l.386-.183a9.329,9.329,0,0,0,.164-1.371,3.4,3.4,0,0,0-.908-.357,15.136,15.136,0,0,0-3.622-.087,15.8,15.8,0,0,0-4.191.908,3.228,3.228,0,0,1-2.173,0,15.428,15.428,0,0,0-4.191-.908,14.65,14.65,0,0,0-3.622.087,2.974,2.974,0,0,0-.908.357,9.325,9.325,0,0,0,.164,1.371l.386.183a8.844,8.844,0,0,0,1.246,2.714,5.258,5.258,0,0,0,3.284.908c1.323.029,2.269-.145,2.7-.628a17.288,17.288,0,0,0,1.217-2.395.943.943,0,0,1,1.632,0h0Zm.724.155c-.338-.927-.357-1.333.058-1.507a11.493,11.493,0,0,1,3.612-.773c.55-.039,3.158-.116,3.486.261.193.222-.251,1.7-.386,2.076a2.881,2.881,0,0,1-3.573,2.366,3.066,3.066,0,0,1-2.279-.531,7.112,7.112,0,0,1-.917-1.9h0Zm-3.071,0a7.258,7.258,0,0,1-.917,1.9,3.11,3.11,0,0,1-2.279.531,4.408,4.408,0,0,1-2.772-.773,4.709,4.709,0,0,1-.792-1.593c-.135-.377-.579-1.854-.386-2.076.328-.377,2.936-.3,3.486-.261a11.494,11.494,0,0,1,3.612.773c.415.183.4.579.048,1.507Z" transform="translate(-196.908 -87.864)" fill="#002035" fill-rule="evenodd"/>
  </g>
</svg>
