<svg xmlns="http://www.w3.org/2000/svg" width="74" height="76" viewBox="-11395 1196.95 74 76"><g data-name="CompositeLayer"><path d="M-11395 1234.9a37 38 0 1 1 0 .1z" fill="#00b0c1" fill-rule="evenodd" data-name="Ellipse 41"/><path d="m-11342.392 1224.212-7.575-7.44a1.086 1.086 0 0 0-.761-.312h-19.152a4.058 4.058 0 0 0-4.053 4.054v28.972a4.058 4.058 0 0 0 4.053 4.054h23.76a4.058 4.058 0 0 0 4.053-4.054v-24.5c0-.29-.117-.57-.325-.774Zm-7.25-4.076 3.833 3.764h-3.488a.346.346 0 0 1-.345-.345v-3.419Zm3.522 31.231h-23.76a1.883 1.883 0 0 1-1.88-1.88v-28.973c0-1.037.843-1.88 1.88-1.88h18.066v4.921a2.52 2.52 0 0 0 2.518 2.518h5.057v23.413c0 1.037-.844 1.881-1.88 1.881Zm0 0" fill="#fff" fill-rule="evenodd" data-name="Path 166"/><path d="M-11351.78 1242.387h-13.992a1.086 1.086 0 1 0 0 2.172h13.993a1.086 1.086 0 0 0 0-2.172Zm0 0" fill="#fff" fill-rule="evenodd" data-name="Path 169"/><path d="M-11350.458 1233.696h-15.314a1.086 1.086 0 1 0 0 2.173h15.314a1.086 1.086 0 1 0 0-2.173Zm0 0" fill="#fff" fill-rule="evenodd" data-name="Path 167"/><path d="M-11365.772 1240.214h12.486a1.086 1.086 0 1 0 0-2.172h-12.486a1.086 1.086 0 0 0 0 2.172Zm0 0" fill="#fff" fill-rule="evenodd" data-name="Path 168"/></g></svg>