<svg xmlns="http://www.w3.org/2000/svg" width="21.7" height="25.25" viewBox="-12356.261 438 21.7 25.25"><g data-name="CompositeLayer"><path d="m-12334.782 443.278-5.159-5.066a.74.74 0 0 0-.518-.212h-13.042a2.763 2.763 0 0 0-2.76 2.76v19.73a2.763 2.763 0 0 0 2.76 2.76h16.18a2.763 2.763 0 0 0 2.76-2.76v-16.684a.74.74 0 0 0-.221-.528Zm-4.937-2.775 2.61 2.563h-2.375a.236.236 0 0 1-.235-.235v-2.328Zm2.398 21.267h-16.18c-.706 0-1.28-.574-1.28-1.28v-19.73c0-.706.574-1.28 1.28-1.28h12.302v3.351c0 .946.77 1.715 1.715 1.715h3.444v15.944c0 .706-.575 1.28-1.28 1.28Zm0 0" fill="#fff" fill-rule="evenodd" data-name="Path 166"/></g></svg>