<svg xmlns="http://www.w3.org/2000/svg" width="20.093" height="26" viewBox="145.346 618 20.093 26"><path d="M154.042 644h-3.812c-3.15 0-4.884-1.767-4.884-4.973 0-3.155 1.55-6.78 5.775-7.546a.954.954 0 0 1 .16-.041c.483-.076.97-.111 1.458-.107h5.306c.488-.004.976.031 1.458.107a.954.954 0 0 1 .16.04c4.227.767 5.776 4.392 5.776 7.547 0 3.206-1.735 4.973-4.884 4.973h-6.513Zm6.513-2c2.054 0 2.93-.89 2.93-2.973a5.352 5.352 0 0 0-1.484-4.155 5.123 5.123 0 0 0-2.624-1.448.967.967 0 0 1-.184-.01 7.142 7.142 0 0 0-1.148-.08h-5.305a7.148 7.148 0 0 0-1.148.08.966.966 0 0 1-.184.01 5.12 5.12 0 0 0-2.624 1.448 5.352 5.352 0 0 0-1.485 4.155c0 2.084.877 2.973 2.931 2.973h10.325Zm-10.639-18.333c0-3.13 2.479-5.667 5.536-5.667 3.058 0 5.536 2.537 5.536 5.667s-2.478 5.666-5.536 5.666c-3.056-.004-5.532-2.538-5.536-5.666Zm1.954 0c0 2.025 1.604 3.666 3.582 3.666 1.978 0 3.582-1.641 3.582-3.666S157.43 620 155.452 620c-1.977.002-3.58 1.642-3.582 3.667Z" fill="#fff" fill-rule="evenodd" data-name="Union 2"/></svg>