<svg xmlns="http://www.w3.org/2000/svg" width="35" height="35" viewBox="-11731 425.95 35 35"><g data-name="CompositeLayer"><path d="M-11731 443.4a17.5 17.5 0 1 1 0 .1z" fill-rule="evenodd" data-name="Ellipse 27"/><path d="M-11717.176 446.077h5.802a.505.505 0 1 0 0-1.01h-5.802a.505.505 0 1 0 0 1.01Zm0 0" fill="#f9f102" fill-rule="evenodd" data-name="Path 168"/><path d="m-11706.312 438.64-3.52-3.456a.505.505 0 0 0-.354-.145h-8.9a1.886 1.886 0 0 0-1.883 1.884v13.463c0 1.038.845 1.883 1.884 1.883h11.04a1.886 1.886 0 0 0 1.884-1.883V439a.505.505 0 0 0-.15-.36Zm-3.369-1.893 1.781 1.75h-1.62a.16.16 0 0 1-.161-.161v-1.589Zm1.637 14.513h-11.041a.875.875 0 0 1-.874-.874v-13.463c0-.482.392-.874.874-.874h8.395v2.287c0 .645.524 1.17 1.17 1.17h2.35v10.88a.875.875 0 0 1-.874.874Zm0 0" fill="#f9f102" fill-rule="evenodd" data-name="Path 166"/><path d="M-11710.06 443.048h-7.116a.505.505 0 1 0 0 1.01h7.116a.505.505 0 1 0 0-1.01Zm0 0" fill="#f9f102" fill-rule="evenodd" data-name="Path 167"/><path d="M-11710.674 447.087h-6.502a.505.505 0 1 0 0 1.01h6.502a.505.505 0 0 0 0-1.01Zm0 0" fill="#f9f102" fill-rule="evenodd" data-name="Path 169"/></g></svg>