<svg xmlns="http://www.w3.org/2000/svg" width="57" height="57" viewBox="-9645 3486 57 57"><g data-name="CompositeLayer"><path d="M-9635 3486h37a10 10 0 0 1 10 10v37a10 10 0 0 1-10 10h-37a10 10 0 0 1-10-10v-37a10 10 0 0 1 10-10z" fill="#3bb44e" fill-rule="evenodd" data-name="Rectangle 1206"/><path d="M-9633.47 3502.966c0-2.263.698-4.093 2.095-5.49 1.396-1.396 3.173-2.094 5.33-2.094 2.192 0 3.986.698 5.382 2.095 1.397 1.396 2.095 3.226 2.095 5.489 0 2.298-.698 4.145-2.095 5.541-1.396 1.397-3.19 2.095-5.382 2.095-2.157 0-3.934-.698-5.33-2.095-1.397-1.396-2.095-3.243-2.095-5.541Zm29.698-7.054-21.743 37.123h-3.765l21.796-37.123h3.712Zm-22.273 1.857c-1.344 0-2.413.45-3.209 1.352-.795.901-1.193 2.183-1.193 3.845 0 1.661.398 2.952 1.193 3.871.796.92 1.865 1.379 3.209 1.379 1.343 0 2.421-.46 3.235-1.379.813-.92 1.22-2.21 1.22-3.871 0-1.627-.407-2.9-1.22-3.819-.814-.919-1.892-1.378-3.235-1.378Zm11.667 28.212c0-2.298.698-4.145 2.094-5.541 1.397-1.397 3.173-2.095 5.33-2.095s3.933.698 5.33 2.095c1.396 1.396 2.094 3.243 2.094 5.541 0 2.298-.698 4.146-2.094 5.542-1.397 1.397-3.173 2.095-5.33 2.095s-3.933-.698-5.33-2.095c-1.396-1.396-2.094-3.244-2.094-5.542Zm7.424-5.197c-1.344 0-2.422.46-3.235 1.38-.813.918-1.22 2.191-1.22 3.817 0 1.627.407 2.9 1.22 3.819s1.891 1.378 3.235 1.378c1.343 0 2.413-.45 3.208-1.352.796-.901 1.194-2.183 1.194-3.845 0-1.661-.398-2.943-1.194-3.844-.795-.902-1.865-1.353-3.208-1.353Z" fill="#fff" fill-rule="evenodd" data-name="Path 2304"/></g></svg>