<svg xmlns="http://www.w3.org/2000/svg" width="35" height="35" viewBox="-11636 425.95 35 35"><g data-name="CompositeLayer"><path d="M-11636 443.4a17.5 17.5 0 1 1 0 .1z" fill-rule="evenodd" data-name="Ellipse 26"/><path d="M-11618.501 435.98a5.406 5.406 0 0 1 4.409 8.528l-3.998 6.293a.476.476 0 0 1-.148.148.472.472 0 0 1-.263.076.496.496 0 0 1-.41-.224l-3.977-6.271a5.365 5.365 0 0 1-1.008-3.15 5.4 5.4 0 0 1 5.4-5.394m-.005 7.854a2.453 2.453 0 1 0 .001-4.907 2.453 2.453 0 0 0-.001 4.907m0-8.955c-3.582 0-6.496 2.914-6.496 6.49 0 1.353.411 2.656 1.194 3.757l3.966 6.25a1.583 1.583 0 0 0 2.672 0l3.988-6.277a6.508 6.508 0 0 0-1.572-9.037 6.515 6.515 0 0 0-3.752-1.183Zm0 7.86a1.358 1.358 0 1 1 1.358-1.359c0 .75-.613 1.358-1.363 1.358Z" fill="#f9f102" fill-rule="evenodd" data-name="Path 2785"/></g></svg>