<svg xmlns="http://www.w3.org/2000/svg" width="75" height="76" viewBox="-10750 1196.95 75 76"><g data-name="CompositeLayer"><path d="M-10750 1234.9a37.5 38 0 1 1 0 .1z" fill-rule="evenodd" data-name="Ellipse 43"/><path d="M-10712.758 1218.569c2.405 0 4.75.742 6.706 2.133a11.633 11.633 0 0 1 2.782 16.218l-8.604 13.542c-.082.13-.188.236-.318.318a1.015 1.015 0 0 1-.566.165c-.342 0-.683-.177-.884-.483l-8.557-13.495a11.545 11.545 0 0 1-2.168-6.777c0-6.412 5.21-11.61 11.62-11.61m-.01 16.902a5.279 5.279 0 0 0 5.28-5.28 5.279 5.279 0 1 0-10.561 0 5.287 5.287 0 0 0 5.28 5.28m0-19.27c-7.708 0-13.978 6.27-13.978 13.966 0 2.911.884 5.716 2.57 8.085l8.532 13.448a3.405 3.405 0 0 0 5.752 0l8.58-13.507c4.408-6.293 2.9-15.003-3.382-19.447a14.02 14.02 0 0 0-8.074-2.545Zm0 16.913a2.922 2.922 0 1 1 2.923-2.923 2.933 2.933 0 0 1-2.935 2.923Z" fill="#f9f102" fill-rule="evenodd" data-name="Path 2785"/></g></svg>