<svg xmlns="http://www.w3.org/2000/svg" width="33.94" height="38.236" viewBox="404.531 252.977 33.94 38.236"><path d="M404.53 260.56c0-2.262.699-4.092 2.095-5.488 1.397-1.397 3.173-2.095 5.33-2.095 2.192 0 3.986.698 5.383 2.095 1.396 1.396 2.095 3.226 2.095 5.489 0 2.298-.699 4.145-2.095 5.541-1.397 1.397-3.19 2.095-5.383 2.095-2.157 0-3.933-.698-5.33-2.095-1.396-1.396-2.094-3.243-2.094-5.541Zm29.698-7.053-21.743 37.122h-3.765l21.796-37.122h3.712Zm-22.273 1.856c-1.343 0-2.413.451-3.208 1.353-.796.901-1.194 2.183-1.194 3.845 0 1.661.398 2.952 1.194 3.87.795.92 1.865 1.38 3.208 1.38 1.344 0 2.422-.46 3.235-1.38.813-.918 1.22-2.209 1.22-3.87 0-1.627-.407-2.9-1.22-3.819s-1.891-1.379-3.235-1.379Zm11.667 28.213c0-2.298.698-4.145 2.095-5.542 1.396-1.396 3.173-2.094 5.33-2.094 2.156 0 3.933.698 5.33 2.094 1.396 1.397 2.094 3.244 2.094 5.542 0 2.298-.698 4.146-2.095 5.542-1.396 1.397-3.173 2.095-5.33 2.095-2.156 0-3.933-.698-5.33-2.095-1.396-1.396-2.094-3.244-2.094-5.542Zm7.424-5.197c-1.343 0-2.421.46-3.234 1.379-.814.92-1.22 2.192-1.22 3.818 0 1.627.406 2.9 1.22 3.818.813.92 1.891 1.38 3.234 1.38 1.344 0 2.413-.451 3.209-1.353.795-.902 1.193-2.183 1.193-3.845 0-1.661-.398-2.943-1.193-3.845-.796-.901-1.865-1.352-3.209-1.352Z" fill="#3bb44e" fill-rule="evenodd" data-name="Path 2299"/></svg>