<svg xmlns="http://www.w3.org/2000/svg" width="35" height="35" viewBox="-11827 425.95 35 35"><g data-name="CompositeLayer"><path d="M-11827 443.4a17.5 17.5 0 1 1 0 .1z" fill-rule="evenodd" data-name="Ellipse 28"/><path d="M-11817.545 438.395c0-1.001.33-1.81.993-2.429.662-.618 1.504-.927 2.527-.927 1.039 0 1.89.31 2.552.927.662.618.993 1.428.993 2.43 0 1.016-.331 1.834-.993 2.452-.662.618-1.513.927-2.552.927-1.023 0-1.865-.309-2.527-.927-.662-.618-.993-1.436-.993-2.453Zm14.08-3.121-10.309 16.429h-1.785l10.334-16.43h1.76Zm-10.56.821c-.637 0-1.144.2-1.521.599-.378.399-.566.966-.566 1.701 0 .736.188 1.307.566 1.714.377.406.884.61 1.52.61.638 0 1.149-.204 1.534-.61.386-.407.579-.978.579-1.714 0-.72-.193-1.283-.579-1.69-.385-.406-.896-.61-1.533-.61Zm5.531 12.486c0-1.017.331-1.834.993-2.452.662-.618 1.505-.927 2.527-.927 1.023 0 1.865.309 2.527.927.662.618.993 1.435.993 2.452s-.33 1.835-.993 2.453c-.662.618-1.504.927-2.527.927-1.022 0-1.865-.309-2.527-.927-.662-.618-.993-1.436-.993-2.453Zm3.52-2.3c-.637 0-1.148.204-1.533.61-.386.407-.579.97-.579 1.69s.193 1.283.579 1.69c.385.407.896.61 1.533.61.637 0 1.144-.2 1.521-.598.378-.4.566-.966.566-1.702 0-.735-.188-1.302-.566-1.701-.377-.4-.884-.599-1.52-.599Z" fill="#f9f102" fill-rule="evenodd" data-name="Path 2312"/></g></svg>