<svg xmlns="http://www.w3.org/2000/svg" width="75" height="76" viewBox="-10965 1196.95 75 76"><g data-name="CompositeLayer"><path d="M-10965 1234.9a37.5 38 0 1 1 0 .1z" fill="#ff5a00" fill-rule="evenodd" data-name="Ellipse 45"/><path d="M-10947.785 1223.296c0-2.356.727-4.26 2.18-5.715 1.455-1.454 3.304-2.18 5.55-2.18 2.281 0 4.15.726 5.603 2.18 1.454 1.454 2.181 3.359 2.181 5.715 0 2.392-.727 4.315-2.18 5.769-1.455 1.454-3.323 2.18-5.605 2.18-2.245 0-4.094-.726-5.548-2.18-1.454-1.454-2.18-3.377-2.18-5.77Zm30.918-7.343-22.636 38.646h-3.92l22.69-38.646h3.866Zm-23.189 1.932c-1.398 0-2.512.47-3.34 1.408-.828.938-1.242 2.273-1.242 4.003s.414 3.073 1.242 4.03c.828.957 1.942 1.435 3.34 1.435 1.4 0 2.522-.478 3.368-1.435.847-.957 1.27-2.3 1.27-4.03 0-1.694-.423-3.019-1.27-3.976-.846-.957-1.969-1.435-3.368-1.435Z" fill="#fff" fill-rule="evenodd" data-name="Path 2303"/></g></svg>