<svg xmlns="http://www.w3.org/2000/svg" width="17.087" height="21.664" viewBox="-12356.261 620.668 17.087 21.664"><g data-name="CompositeLayer"><path d="M-12356.26 625.031c0-1.302.401-2.354 1.205-3.158.803-.803 1.825-1.205 3.066-1.205 1.261 0 2.294.402 3.097 1.205.804.804 1.206 1.856 1.206 3.158 0 1.323-.402 2.385-1.206 3.189-.803.803-1.836 1.205-3.097 1.205-1.24 0-2.263-.402-3.066-1.205-.804-.804-1.206-1.866-1.206-3.189Zm17.087-4.058-12.51 21.359h-2.167l12.54-21.359h2.137Zm-12.816 1.068c-.773 0-1.388.26-1.846.778-.457.519-.686 1.256-.686 2.212 0 .956.229 1.699.686 2.228.458.529 1.073.793 1.846.793.773 0 1.394-.264 1.862-.793.467-.53.701-1.272.701-2.228 0-.935-.234-1.668-.701-2.197-.468-.528-1.089-.793-1.862-.793Z" fill="#fff" fill-rule="evenodd" data-name="Path 2303"/></g></svg>