<svg xmlns="http://www.w3.org/2000/svg" width="52" height="52" viewBox="-11557 1593 52 52"><g data-name="CompositeLayer"><path d="M-11547 1593h32a10 10 0 0 1 10 10v32a10 10 0 0 1-10 10h-32a10 10 0 0 1-10-10v-32a10 10 0 0 1 10-10z" fill-rule="evenodd" data-name="Rectangle 1248"/><path d="M-11520.012 1621.846a.863.863 0 0 0-.863.863v2.947a2.619 2.619 0 0 1-2.619 2.618h-15.013a2.619 2.619 0 0 1-2.62-2.618v-2.947a.863.863 0 0 0-1.725 0v2.947a4.349 4.349 0 0 0 4.345 4.344h15.013a4.349 4.349 0 0 0 4.345-4.344v-2.947a.863.863 0 0 0-.863-.863Z" fill="#f9f102" fill-rule="evenodd" data-name="Path 172"/><path d="m-11535.315 1618.225 3.451 3.451v-12.813a.863.863 0 1 1 1.726 0v12.8l3.451-3.451a.863.863 0 1 1 1.221 1.22l-4.922 4.923a.932.932 0 0 1-.431.238.889.889 0 0 1-.781-.238l-4.923-4.91a.863.863 0 0 1 1.208-1.22Z" fill="#f9f102" fill-rule="evenodd" data-name="Path 173"/></g></svg>